<svg width="13" height="14" viewBox="0 0 13 14" fill="none" xmlns="http://www.w3.org/2000/svg">
<path d="M3.07895 0C3.07895 0 3.03678 2.36024 3.88449 3.35959C4.55097 4.14529 6.1579 4.55 6.1579 4.55C6.1579 4.55 4.55097 4.95471 3.88449 5.74041C3.03678 6.73976 3.07895 9.1 3.07895 9.1C3.07895 9.1 3.12111 6.73976 2.2734 5.74041C1.60692 4.95471 0 4.55 0 4.55C0 4.55 1.60692 4.14529 2.2734 3.35959C3.12111 2.36024 3.07895 0 3.07895 0Z" fill="#FFD142"/>
<path d="M4.78947 9.1C4.78947 9.1 4.76605 10.3709 5.237 10.909C5.60726 11.3321 6.5 11.55 6.5 11.55C6.5 11.55 5.60726 11.7679 5.237 12.191C4.76605 12.7291 4.78947 14 4.78947 14C4.78947 14 4.8129 12.7291 4.34195 12.191C3.97168 11.7679 3.07895 11.55 3.07895 11.55C3.07895 11.55 3.97168 11.3321 4.34195 10.909C4.8129 10.3709 4.78947 9.1 4.78947 9.1Z" fill="#FFD142"/>
<path d="M9.23684 1.75C9.23684 1.75 9.18531 4.65491 10.2214 5.88487C11.036 6.85189 13 7.35 13 7.35C13 7.35 11.036 7.84811 10.2214 8.81513C9.18531 10.0451 9.23684 12.95 9.23684 12.95C9.23684 12.95 9.28838 10.0451 8.25229 8.81513C7.4377 7.84811 5.47368 7.35 5.47368 7.35C5.47368 7.35 7.4377 6.85189 8.25229 5.88487C9.28838 4.65491 9.23684 1.75 9.23684 1.75Z" fill="#FFD142"/>
</svg>
